<svg xmlns="http://www.w3.org/2000/svg" viewBox="0 0 60.51 59"><g id="Layer_2" data-name="Layer 2"><g id="Layer_1-2" data-name="Layer 1"><path id="Icon_awesome-github" data-name="Icon awesome-github" d="M20.24,47.51c0,.24-.28.44-.63.44s-.69-.16-.69-.44.28-.44.64-.44S20.24,47.23,20.24,47.51ZM16.45,47c-.09.24.16.52.52.59a.57.57,0,0,0,.76-.24c.07-.24-.16-.52-.53-.63a.61.61,0,0,0-.75.28Zm5.39-.21c-.35.08-.6.32-.56.6s.35.4.72.31.6-.31.56-.56S22.19,46.71,21.84,46.75ZM29.86,0A29.24,29.24,0,0,0,0,28.63c0,.38,0,.76,0,1.14A30.6,30.6,0,0,0,20.68,59c1.56.28,2.11-.68,2.11-1.48s0-4.92,0-7.49c0,0-8.53,1.84-10.33-3.63,0,0-1.39-3.55-3.39-4.47,0,0-2.79-1.91.2-1.88a6.46,6.46,0,0,1,4.71,3.15c2.67,4.71,7.14,3.35,8.89,2.55a6.75,6.75,0,0,1,1.94-4.11C18,40.83,11.08,39.85,11.08,28.11A9.24,9.24,0,0,1,14,20.93a11.57,11.57,0,0,1,.32-8.29c2.55-.78,8.42,3.3,8.42,3.3a28.86,28.86,0,0,1,15.32,0s5.87-4.1,8.41-3.3a11.52,11.52,0,0,1,.32,8.29c2,2.16,3.15,3.84,3.15,7.18,0,11.77-7.19,12.71-14,13.48A7.19,7.19,0,0,1,38,47.25c0,4.11,0,9.2,0,10.2,0,.79.56,1.76,2.11,1.48A30.31,30.31,0,0,0,60.51,29.77C60.51,12.85,46.78,0,29.86,0Zm-18,42.07c-.16.12-.12.4.09.63s.47.28.63.13.12-.41-.08-.64S12,41.92,11.86,42.08Zm-1.32-1c-.08.16,0,.35.28.48a.37.37,0,0,0,.51-.07l0,0c.08-.16,0-.35-.28-.47S10.63,41,10.54,41.09Zm4,4.34c-.2.16-.12.53.16.76s.63.32.78.12.09-.52-.16-.76-.63-.31-.78-.12Zm-1.39-1.79c-.19.12-.19.44,0,.72s.52.4.68.28a.56.56,0,0,0,0-.76C13.62,43.6,13.3,43.48,13.11,43.64Z" fill="#f2c4c4"/></g></g></svg>