<svg xmlns="http://www.w3.org/2000/svg" viewBox="0 0 53.98 53.97"><g id="Layer_2" data-name="Layer 2"><g id="Layer_1-2" data-name="Layer 1"><path id="Icon_awesome-linkedin" data-name="Icon awesome-linkedin" d="M50.12,0H3.84A3.88,3.88,0,0,0,0,3.89V50.08A3.86,3.86,0,0,0,3.84,54H50.13A3.88,3.88,0,0,0,54,50.08V3.89A3.88,3.88,0,0,0,50.12,0ZM16.31,46.26h-8V20.51h8V46.26ZM12.32,17A4.64,4.64,0,1,1,17,12.35h0A4.63,4.63,0,0,1,12.32,17Zm34,29.27h-8V33.73c0-3-.06-6.83-4.16-6.83s-4.8,3.26-4.8,6.62V46.26h-8V20.51H29V24h.11a8.42,8.42,0,0,1,7.58-4.15c8.09,0,9.6,5.34,9.6,12.28Z" fill="#f2c4c4"/></g></g></svg>